# xmcd
#
# Track frame offsets:
#	150
#	12547
#	27509
#	46235
#	65703
#	82327
#	98428
#	116165
#	130014
#	147152
#	162640
#	183528
#	196315
#	217514
#	233601
#	250065
#
# Disc length: 3572 seconds
#
# Revision: 0
# Processed by: cddbd v1.5.2PL0 Copyright (c) Steve Scherf et al.
# Submitted via: EZCDAudioConverter 2.1.3.1
#
DISCID=de0df210
DTITLE=JJ Blue - Jerry Blevins and Jeff Hale - A New Shade of Blue
DYEAR=2004
DGENRE=Country
TTITLE0=New Shade of Blue
TTITLE1=Hidey Ho
TTITLE2=Pinto Beans
TTITLE3=Sportin' Life
TTITLE4=Top of the World
TTITLE5=I Ain't Perfec
TTITLE6=On a Monday
TTITLE7=Your Love's Too Strong
TTITLE8=Amelia
TTITLE9=Run Run Away
TTITLE10=Low Bottom E
TTITLE11=Midnight
TTITLE12=What's The Use
TTITLE13=Blue Eyes
TTITLE14=Tell Me
TTITLE15=Bolive Me
EXTD=
EXTT0=
EXTT1=
EXTT2=
EXTT3=
EXTT4=
EXTT5=
EXTT6=
EXTT7=
EXTT8=
EXTT9=
EXTT10=
EXTT11=
EXTT12=
EXTT13=
EXTT14=
EXTT15=
PLAYORDER=
